HIERARCHY
ROOT Hips
{
	OFFSET 0.000000 0.000000 0.000000 
	CHANNELS 6 Xposition Yposition Zposition Zrotation Yrotation Xrotation
	JOINT LeftUpLeg
	{
		OFFSET 1.363060 -1.794630 0.839290 
		CHANNELS 3 Zrotation Yrotation Xrotation
		JOINT LeftLeg
		{
			OFFSET 2.448110 -6.726130 0.000000 
			CHANNELS 3 Zrotation Yrotation Xrotation
			JOINT LeftFoot
			{
				OFFSET 2.562200 -7.039590 0.000000 
				CHANNELS 3 Zrotation Yrotation Xrotation
				JOINT LeftToeBase
				{
					OFFSET 0.157640 -0.433110 2.322550 
					CHANNELS 3 Zrotation Yrotation Xrotation
					End Site
					{
						OFFSET 0.000000 0.000000 0.000000 
					}
				}
			}
		}
	}
	JOINT RightUpLeg
	{
		OFFSET -1.305520 -1.794630 0.839290 
		CHANNELS 3 Zrotation Yrotation Xrotation
		JOINT RightLeg
		{
			OFFSET -2.542530 -6.985550 0.000000 
			CHANNELS 3 Zrotation Yrotation Xrotation
			JOINT RightFoot
			{
				OFFSET -2.568260 -7.056230 0.000000 
				CHANNELS 3 Zrotation Yrotation Xrotation
				JOINT RightToeBase
				{
					OFFSET -0.164730 -0.452590 2.363150 
					CHANNELS 3 Zrotation Yrotation Xrotation
					End Site
					{
						OFFSET 0.000000 0.000000 0.000000 
					}
				}
			}
		}
	}
	JOINT Spine
	{
		OFFSET 0.028270 2.035590 -0.193380 
		CHANNELS 3 Zrotation Yrotation Xrotation
		JOINT Spine1
		{
			OFFSET 0.056720 2.048850 -0.042750 
			CHANNELS 3 Zrotation Yrotation Xrotation
			JOINT Neck1
			{
				OFFSET -0.054170 1.746240 0.172020 
				CHANNELS 3 Zrotation Yrotation Xrotation
				JOINT Head
				{
					OFFSET 0.104070 1.761360 -0.123970 
					CHANNELS 3 Zrotation Yrotation Xrotation
					End Site
					{
						OFFSET 0.000000 0.000000 0.000000 
					}
				}
			}
			JOINT LeftArm
			{
				OFFSET 3.362410 1.200890 -0.311210 
				CHANNELS 3 Zrotation Yrotation Xrotation
				JOINT LeftForeArm
				{
					OFFSET 4.983000 -0.000000 -0.000000 
					CHANNELS 3 Zrotation Yrotation Xrotation
					JOINT LeftHand
					{
						OFFSET 3.483560 -0.000000 -0.000000 
						CHANNELS 3 Zrotation Yrotation Xrotation
						JOINT LeftHandIndex1
						{
							OFFSET 0.715260 -0.000000 -0.000000 
							CHANNELS 3 Zrotation Yrotation Xrotation
							End Site
							{
								OFFSET 0.000000 0.000000 0.000000 
							}
						}
					}
				}
			}
			JOINT RightArm
			{
				OFFSET -3.136600 1.374050 -0.404650 
				CHANNELS 3 Zrotation Yrotation Xrotation
				JOINT RightForeArm
				{
					OFFSET -5.241900 -0.000000 -0.000000 
					CHANNELS 3 Zrotation Yrotation Xrotation
					JOINT RightHand
					{
						OFFSET -3.444170 -0.000000 -0.000000 
						CHANNELS 3 Zrotation Yrotation Xrotation
						JOINT RightHandIndex1
						{
							OFFSET -0.622530 -0.000000 -0.000000 
							CHANNELS 3 Zrotation Yrotation Xrotation
							End Site
							{
								OFFSET 0.000000 0.000000 0.000000 
							}
						}
					}
				}
			}
		}
	}
}
MOTION
Frames: 7
Frame Time: 0.041667
16.985436 18.006569 -0.451143 -161.586286 57.004653 -143.622962 -0.942972 -8.339778 -29.404179 0.316844 8.322499 22.528382 -0.437140 6.942119 -10.315566 3.011300 -10.713300 -31.318900 31.416753 -1.663824 -36.402012 -1.388198 -7.666897 22.146694 -0.393906 6.993780 11.330727 -2.774700 -10.321100 30.023000 2.538722 1.594826 -6.586275 0.382034 1.710366 -15.752407 8.520027 -16.868237 2.514502 -4.514800 -8.673400 0.482900 -55.153299 11.608777 -30.453790 148.721331 -38.440303 -109.968517 0.479653 1.003452 -94.525677 -7.125000 0.000000 0.000000 24.086471 7.799209 -37.221766 -24.442650 27.082782 -8.730146 1.115727 0.282311 -30.186178 7.125000 0.000000 0.000000 
16.902760 18.023562 -0.508480 -161.819150 57.323258 -143.369645 -1.550837 -8.203154 -29.868681 0.256529 8.245534 22.271079 -0.458721 7.103058 -10.205522 3.007600 -10.707400 -31.299300 30.485090 -0.542357 -36.702621 -1.316288 -7.658687 21.946851 -0.414235 4.901447 11.169483 -3.905200 -12.033100 35.849300 2.444936 1.726949 -6.616716 -0.182073 1.695478 -16.073734 8.641558 -16.616328 1.975763 -4.428500 -8.633500 0.365200 -54.383385 12.185986 -30.994512 148.185655 -38.913220 -109.678587 0.529414 0.953357 -94.569147 -7.125000 0.000000 0.000000 23.660351 7.496059 -36.944724 -24.262814 26.923529 -8.681104 1.151042 0.312429 -30.526027 7.125000 0.000000 0.000000 
16.821772 18.056950 -0.560550 -162.442889 57.775546 -143.461148 -2.407006 -8.099275 -30.283606 0.189276 8.152504 21.985763 -0.470277 7.179840 -10.041276 2.994800 -10.686700 -31.230200 29.196831 0.543614 -37.092598 -1.251877 -7.684087 21.824382 -0.390694 2.726117 10.615498 -5.002800 -13.386900 40.834700 2.362952 1.826622 -6.656768 -0.493979 1.712582 -16.462014 8.704626 -16.435159 1.492583 -4.361800 -8.621600 0.261000 -53.762293 12.708309 -31.573570 147.079389 -39.865359 -109.095120 0.601092 0.847252 -92.550950 -7.125000 0.000000 0.000000 23.062960 7.216579 -36.790387 -24.024590 26.701403 -8.591035 1.189584 0.337297 -30.678091 7.125000 0.000000 0.000000 
16.748238 18.083482 -0.620968 -162.789578 58.297717 -143.271736 -3.102704 -8.039953 -30.686526 0.143183 8.102397 21.818116 -0.446523 7.063992 -10.148284 2.696600 -10.186900 -29.584200 28.584929 0.672562 -37.963368 -1.216971 -7.708356 21.723417 -0.398185 1.849561 10.715702 -5.301700 -13.715700 42.110300 2.286454 2.047078 -6.683614 -0.872874 1.782875 -16.705226 8.605817 -16.278091 1.033195 -4.341900 -8.625400 0.105300 -53.184557 13.182244 -32.021253 146.957903 -39.979898 -109.010653 0.578036 0.866475 -93.897699 -7.125000 0.000000 0.000000 22.524602 6.967881 -36.824881 -23.773887 26.476945 -8.497650 1.226869 0.356406 -30.631537 7.125000 0.000000 0.000000 
16.679672 18.084277 -0.679894 -162.886264 58.963711 -142.826918 -3.719809 -7.875293 -31.218247 0.131117 8.142986 21.894432 -0.410078 6.944998 -10.539595 2.325600 -9.513800 -27.416000 28.592509 0.220402 -39.104064 -1.191661 -7.694014 21.534244 -0.464522 1.928193 11.629041 -5.140000 -13.539800 41.424300 2.216280 2.266256 -6.694828 -1.194879 1.860157 -16.842774 8.627062 -15.925683 0.459501 -4.212300 -8.543000 -0.093200 -52.642802 13.784737 -32.637779 145.841164 -40.953029 -108.380321 0.660270 0.757851 -92.266526 -7.125000 0.000000 0.000000 22.145296 6.927063 -36.735127 -23.659388 26.385887 -8.470520 1.253495 0.387961 -30.560806 7.125000 0.000000 0.000000 
16.612299 18.064204 -0.726499 -163.005170 59.802841 -142.230124 -4.471460 -7.392764 -32.112622 0.144984 8.248052 22.122984 -0.363650 6.712630 -10.756847 2.076500 -9.023700 -25.869500 28.895183 -0.404226 -40.568634 -1.159281 -7.662735 21.267111 -0.576458 2.151296 13.088838 -4.982500 -13.364000 40.746800 2.130717 2.467460 -6.700959 -1.451110 1.947126 -16.841226 8.715327 -15.577834 -0.077306 -4.103500 -8.452200 -0.231800 -51.993413 14.372635 -33.433120 145.343125 -41.403639 -108.087882 0.682616 0.721005 -93.115708 -7.125000 0.000000 0.000000 21.859246 6.962753 -36.578700 -23.671135 26.417432 -8.508994 1.264267 0.413648 -30.593896 7.125000 0.000000 0.000000 
16.548205 18.055162 -0.771216 -162.900302 60.435397 -141.402560 -5.061482 -6.807613 -33.155203 0.172566 8.363008 22.358958 -0.329282 6.435298 -10.579803 2.057200 -8.984300 -25.746100 29.169292 -0.658552 -41.912771 -1.115093 -7.644951 21.030364 -0.655584 1.930704 13.957818 -4.697300 -13.034600 39.498000 2.040246 2.730595 -6.714337 -1.866694 2.029463 -16.806490 8.735420 -15.435793 -0.487323 -4.075900 -8.445800 -0.335700 -51.090207 14.876814 -33.922906 144.804546 -41.869975 -107.783385 0.689000 0.689701 -94.195164 -7.125000 0.000000 0.000000 21.446588 6.848456 -36.549253 -23.482083 26.263646 -8.451492 1.290350 0.420069 -30.826833 7.125000 0.000000 0.000000 
